<?xml version="1.0" encoding="utf-8"?>
<!-- Generator: Adobe Illustrator 17.1.0, SVG Export Plug-In . SVG Version: 6.00 Build 0)  -->
<!DOCTYPE svg PUBLIC "-//W3C//DTD SVG 1.1//EN" "http://www.w3.org/Graphics/SVG/1.1/DTD/svg11.dtd">
<svg version="1.1" id="Layer_1" xmlns="http://www.w3.org/2000/svg" xmlns:xlink="http://www.w3.org/1999/xlink" x="0px" y="0px"
	 viewBox="0 0 21 21" enable-background="new 0 0 21 21" xml:space="preserve">
<title>Page 1</title>
<desc>Created with Sketch.</desc>
<g id="Symbols">
	<g id="credits-icon-_x28_active_x29_" transform="translate(-10.000000, -9.000000)">
		<path id="Page-1" fill="#F6A623" d="M23.2,26.3h-5.5c-0.3,0-0.5-0.2-0.5-0.5c0-0.3,0.2-0.5,0.5-0.5H20v-7.3h-1.4
			c-0.3,0-0.5-0.2-0.5-0.5c0-0.3,0.2-0.5,0.5-0.5h1.8c0.3,0,0.5,0.2,0.5,0.5v7.8h2.3c0.3,0,0.5,0.2,0.5,0.5
			C23.7,26.1,23.5,26.3,23.2,26.3 M20,13.6c0.5,0,0.9,0.4,0.9,0.9c0,0.5-0.4,0.9-0.9,0.9c-0.5,0-0.9-0.4-0.9-0.9
			C19.1,14,19.5,13.6,20,13.6 M10,19.5C10,25.3,14.7,30,20.5,30S31,25.3,31,19.5C31,13.7,26.3,9,20.5,9S10,13.7,10,19.5z"/>
	</g>
</g>
</svg>
