<?xml version="1.0" encoding="UTF-8"?>
<svg width="23px" height="19px" viewBox="0 0 23 19" version="1.1" xmlns="http://www.w3.org/2000/svg" xmlns:xlink="http://www.w3.org/1999/xlink">
    <!-- Generator: Sketch 42 (36781) - http://www.bohemiancoding.com/sketch -->
    <title>twitter</title>
    <desc>Created with Sketch.</desc>
    <defs></defs>
    <g id="Symbols" stroke="none" stroke-width="1" fill="none" fill-rule="evenodd">
        <g id="twitter-icon-(active)" transform="translate(-14.000000, -15.000000)" fill="#333333">
            <path d="M34.2898656,17.9547916 C35.264046,17.3709506 36.0135867,16.4468137 36.3650034,15.3447442 C35.4542114,15.8852142 34.4444444,16.2788899 33.3690649,16.4901847 C32.5072043,15.5727202 31.2805821,15 29.9238468,15 C27.3182478,15 25.2052993,17.1129485 25.2052993,19.7185475 C25.2052993,20.0888695 25.2464462,20.4480708 25.3265158,20.7939271 C21.4053283,20.5970893 17.9289721,18.7187893 15.6013925,15.8629726 C15.195484,16.5613577 14.9630597,17.3709506 14.9630597,18.2361474 C14.9630597,19.8731264 15.7960062,21.3177159 17.060439,22.1628953 C16.2875447,22.1395416 15.5602456,21.9260226 14.9241369,21.5723818 L14.9241369,21.632434 C14.9241369,23.9177546 16.5511072,25.8260806 18.7085388,26.2597911 C18.3137511,26.3665506 17.8956097,26.4254908 17.4663475,26.4254908 C17.1627502,26.4254908 16.8658254,26.3954647 16.5777971,26.3398607 C17.1783193,28.2148245 18.9209457,29.5782323 20.9849628,29.617155 C19.3713374,30.8826999 17.3373465,31.637801 15.1254231,31.637801 C14.7439803,31.637801 14.3692099,31.6144473 14,31.5710763 C16.0873707,32.9089063 18.568417,33.6906972 21.2340683,33.6906972 C29.912726,33.6906972 34.6590755,26.5022242 34.6590755,20.26569 C34.6590755,20.0621797 34.6546272,19.8575573 34.6468427,19.654047 C35.5665313,18.9901364 36.3661155,18.159414 37,17.2119234 C36.1537085,17.5878058 35.2440286,17.8413596 34.2898656,17.9547916 Z" id="twitter"></path>
        </g>
    </g>
</svg>