<?xml version="1.0" encoding="utf-8"?>
<!-- Generator: Adobe Illustrator 17.1.0, SVG Export Plug-In . SVG Version: 6.00 Build 0)  -->
<!DOCTYPE svg PUBLIC "-//W3C//DTD SVG 1.1//EN" "http://www.w3.org/Graphics/SVG/1.1/DTD/svg11.dtd">
<svg version="1.1" id="Layer_1" xmlns="http://www.w3.org/2000/svg" xmlns:xlink="http://www.w3.org/1999/xlink" x="0px" y="0px"
	 viewBox="0 0 23 19" enable-background="new 0 0 23 19" xml:space="preserve">
<title>twitter</title>
<desc>Created with Sketch.</desc>
<g id="Symbols">
	<g id="twitter-icon-_x28_active_x29_" transform="translate(-14.000000, -15.000000)">
		<path id="twitter" fill="#F6A623" d="M34.3,18c1-0.6,1.7-1.5,2.1-2.6c-0.9,0.5-1.9,0.9-3,1.1c-0.9-0.9-2.1-1.5-3.4-1.5
			c-2.6,0-4.7,2.1-4.7,4.7c0,0.4,0,0.7,0.1,1.1c-3.9-0.2-7.4-2.1-9.7-4.9c-0.4,0.7-0.6,1.5-0.6,2.4c0,1.6,0.8,3.1,2.1,3.9
			c-0.8,0-1.5-0.2-2.1-0.6v0.1c0,2.3,1.6,4.2,3.8,4.6c-0.4,0.1-0.8,0.2-1.2,0.2c-0.3,0-0.6,0-0.9-0.1c0.6,1.9,2.3,3.2,4.4,3.3
			c-1.6,1.3-3.6,2-5.9,2c-0.4,0-0.8,0-1.1-0.1c2.1,1.3,4.6,2.1,7.2,2.1c8.7,0,13.4-7.2,13.4-13.4c0-0.2,0-0.4,0-0.6
			c0.9-0.7,1.7-1.5,2.4-2.4C36.2,17.6,35.2,17.8,34.3,18z"/>
	</g>
</g>
</svg>
