<?xml version="1.0" encoding="UTF-8"?>
<svg width="17px" height="17px" viewBox="0 0 17 17" version="1.1" xmlns="http://www.w3.org/2000/svg" xmlns:xlink="http://www.w3.org/1999/xlink">
    <!-- Generator: Sketch 42 (36781) - http://www.bohemiancoding.com/sketch -->
    <title>Path</title>
    <desc>Created with Sketch.</desc>
    <defs></defs>
    <g id="Symbols" stroke="none" stroke-width="1" fill="none" fill-rule="evenodd">
        <g id="hotpoint-(locked)" transform="translate(-61.000000, -19.000000)" fill="#FFFFFF">
            <path d="M70.9137918,28.9294601 L70.9137918,34.5843097 C70.9137918,35.3677272 70.2870578,36.0087051 69.4893964,36.0087051 C68.7059789,36.0087051 68.065001,35.3677272 68.065001,34.5843097 L68.065001,28.9294601 L62.4243954,28.9294601 C61.6409779,28.9294601 61,28.2884822 61,27.5050647 C61,26.7059789 61.6409779,26.0806694 62.4243954,26.0806694 L68.065001,26.0806694 L68.065001,20.4243954 C68.065001,19.6281584 68.7059789,19 69.4893964,19 C70.2870578,19 70.9137918,19.6281584 70.9137918,20.4243954 L70.9137918,26.0806694 L76.5828853,26.0806694 C77.3805467,26.0806694 78.0072807,26.7059789 78.0072807,27.5050647 C78.0072807,28.2884822 77.3805467,28.9294601 76.5828853,28.9294601 L70.9137918,28.9294601 Z" id="Path"></path>
        </g>
    </g>
</svg>