<?xml version="1.0" encoding="utf-8"?>
<!-- Generator: Adobe Illustrator 17.1.0, SVG Export Plug-In . SVG Version: 6.00 Build 0)  -->
<!DOCTYPE svg PUBLIC "-//W3C//DTD SVG 1.1//EN" "http://www.w3.org/Graphics/SVG/1.1/DTD/svg11.dtd">
<svg version="1.1" id="Layer_1" xmlns="http://www.w3.org/2000/svg" xmlns:xlink="http://www.w3.org/1999/xlink" x="0px" y="0px"
	 viewBox="109.8 197.6 200 200" enable-background="new 109.8 197.6 200 200" xml:space="preserve">
<title>Page 1</title>
<desc>Created with Sketch.</desc>
<g id="Symbols">
	<g id="credits-icon-_x28_active_x29_" transform="translate(-10.000000, -9.000000)">
		<path id="Page-1" fill="#F6A623" d="M244.8,370.5h-52.1c-2.8,0-4.7-1.9-4.7-4.7s1.9-4.7,4.7-4.7h21.8v-69.1h-13.3
			c-2.8,0-4.7-1.9-4.7-4.7s1.9-4.7,4.7-4.7h17c2.8,0,4.7,1.9,4.7,4.7V361h21.8c2.8,0,4.7,1.9,4.7,4.7
			C249.5,368.6,247.6,370.5,244.8,370.5 M214.5,250.2c4.7,0,8.5,3.8,8.5,8.5s-3.8,8.5-8.5,8.5s-8.5-3.8-8.5-8.5
			S209.7,250.2,214.5,250.2 M119.8,306.1c0,54.9,44.5,99.4,99.4,99.4s99.4-44.5,99.4-99.4s-44.5-99.4-99.4-99.4
			S119.8,251.2,119.8,306.1z"/>
	</g>
</g>
</svg>
