<?xml version="1.0" encoding="utf-8"?>
<!-- Generator: Adobe Illustrator 17.1.0, SVG Export Plug-In . SVG Version: 6.00 Build 0)  -->
<!DOCTYPE svg PUBLIC "-//W3C//DTD SVG 1.1//EN" "http://www.w3.org/Graphics/SVG/1.1/DTD/svg11.dtd">
<svg version="1.1" id="Layer_1" xmlns="http://www.w3.org/2000/svg" xmlns:xlink="http://www.w3.org/1999/xlink" x="0px" y="0px"
	 viewBox="109.8 197.6 200 200" enable-background="new 109.8 197.6 200 200" xml:space="preserve">
<title>twitter</title>
<desc>Created with Sketch.</desc>
<g id="Symbols">
	<g id="twitter-icon-_x28_active_x29_" transform="translate(-14.000000, -15.000000)">
		<path id="twitter" fill="#F6A623" d="M297.8,258c8.6-5.2,14.7-12.9,18.1-22.4c-7.8,4.3-16.4,7.8-25.9,9.5
			c-7.8-7.8-18.1-12.9-29.3-12.9c-22.4,0-40.6,18.1-40.6,40.6c0,3.5,0,6,0.9,9.5c-33.7-1.7-63.9-18.1-83.7-42.3
			c-3.5,6-5.2,12.9-5.2,20.7c0,13.8,6.9,26.8,18.1,33.7c-6.9,0-12.9-1.7-18.1-5.2v0.9c0,19.9,13.8,36.3,32.8,39.7
			c-3.5,0.9-6.9,1.7-10.4,1.7c-2.6,0-5.2,0-7.8-0.9c5.2,16.4,19.9,27.6,38,28.5c-13.8,11.2-31.1,17.3-50.9,17.3
			c-3.5,0-6.9,0-9.5-0.9c18.1,11.2,39.7,18.1,62.2,18.1c75.1,0,115.7-62.2,115.7-115.7c0-1.7,0-3.5,0-5.2c7.8-6,14.7-12.9,20.7-20.7
			C314.2,254.5,305.6,256.2,297.8,258z"/>
	</g>
</g>
</svg>
